<mxfile host="www.draw.io" modified="2023-03-31T07:03:47.740Z" agent="Mozilla/5.0 (Windows NT 10.0; Win64; x64) AppleWebKit/537.36 (KHTML, like Gecko) Chrome/111.0.0.0 Safari/537.36 Edg/111.0.1661.54" etag="TbcKzuucLqkkNv0owHdd" version="21.1.2" type="device">
  <diagram name="第 1 页" id="1TLqws4hnh8P2Y65oCiK">
    <mxGraphModel dx="891" dy="965" grid="1" gridSize="10" guides="1" tooltips="1" connect="1" arrows="1" fold="1" page="1" pageScale="1" pageWidth="827" pageHeight="1169" math="0" shadow="0">
      <root>
        <mxCell id="0" />
        <mxCell id="1" parent="0" />
        <mxCell id="tglGRncMYDK3kfXCXygw-8" value="teacher" style="swimlane;whiteSpace=wrap;html=1;fillColor=#dae8fc;strokeColor=#6c8ebf;" parent="1" vertex="1">
          <mxGeometry x="120" y="280" width="70" height="140" as="geometry" />
        </mxCell>
        <mxCell id="tglGRncMYDK3kfXCXygw-9" value="&lt;u&gt;TID&lt;/u&gt;" style="text;strokeColor=none;fillColor=none;align=left;verticalAlign=middle;spacingLeft=4;spacingRight=4;overflow=hidden;points=[[0,0.5],[1,0.5]];portConstraint=eastwest;rotatable=0;whiteSpace=wrap;html=1;" parent="tglGRncMYDK3kfXCXygw-8" vertex="1">
          <mxGeometry y="20" width="70" height="30" as="geometry" />
        </mxCell>
        <mxCell id="tglGRncMYDK3kfXCXygw-12" value="TNAME" style="text;strokeColor=none;fillColor=none;align=left;verticalAlign=middle;spacingLeft=4;spacingRight=4;overflow=hidden;points=[[0,0.5],[1,0.5]];portConstraint=eastwest;rotatable=0;whiteSpace=wrap;html=1;" parent="tglGRncMYDK3kfXCXygw-8" vertex="1">
          <mxGeometry y="50" width="70" height="30" as="geometry" />
        </mxCell>
        <mxCell id="tglGRncMYDK3kfXCXygw-13" value="DEPT" style="text;strokeColor=none;fillColor=none;align=left;verticalAlign=middle;spacingLeft=4;spacingRight=4;overflow=hidden;points=[[0,0.5],[1,0.5]];portConstraint=eastwest;rotatable=0;whiteSpace=wrap;html=1;" parent="tglGRncMYDK3kfXCXygw-8" vertex="1">
          <mxGeometry y="80" width="70" height="30" as="geometry" />
        </mxCell>
        <mxCell id="tglGRncMYDK3kfXCXygw-14" value="SALARY" style="text;strokeColor=none;fillColor=none;align=left;verticalAlign=middle;spacingLeft=4;spacingRight=4;overflow=hidden;points=[[0,0.5],[1,0.5]];portConstraint=eastwest;rotatable=0;whiteSpace=wrap;html=1;" parent="tglGRncMYDK3kfXCXygw-8" vertex="1">
          <mxGeometry y="110" width="70" height="30" as="geometry" />
        </mxCell>
        <mxCell id="tglGRncMYDK3kfXCXygw-20" value="student" style="swimlane;whiteSpace=wrap;html=1;fillColor=#dae8fc;strokeColor=#6c8ebf;" parent="1" vertex="1">
          <mxGeometry x="280" y="280" width="70" height="170" as="geometry" />
        </mxCell>
        <mxCell id="tglGRncMYDK3kfXCXygw-21" value="&lt;u&gt;SID&lt;/u&gt;" style="text;strokeColor=none;fillColor=none;align=left;verticalAlign=middle;spacingLeft=4;spacingRight=4;overflow=hidden;points=[[0,0.5],[1,0.5]];portConstraint=eastwest;rotatable=0;whiteSpace=wrap;html=1;" parent="tglGRncMYDK3kfXCXygw-20" vertex="1">
          <mxGeometry y="20" width="70" height="30" as="geometry" />
        </mxCell>
        <mxCell id="tglGRncMYDK3kfXCXygw-22" value="SNAME" style="text;strokeColor=none;fillColor=none;align=left;verticalAlign=middle;spacingLeft=4;spacingRight=4;overflow=hidden;points=[[0,0.5],[1,0.5]];portConstraint=eastwest;rotatable=0;whiteSpace=wrap;html=1;" parent="tglGRncMYDK3kfXCXygw-20" vertex="1">
          <mxGeometry y="50" width="70" height="30" as="geometry" />
        </mxCell>
        <mxCell id="tglGRncMYDK3kfXCXygw-23" value="DEPT" style="text;strokeColor=none;fillColor=none;align=left;verticalAlign=middle;spacingLeft=4;spacingRight=4;overflow=hidden;points=[[0,0.5],[1,0.5]];portConstraint=eastwest;rotatable=0;whiteSpace=wrap;html=1;" parent="tglGRncMYDK3kfXCXygw-20" vertex="1">
          <mxGeometry y="80" width="70" height="30" as="geometry" />
        </mxCell>
        <mxCell id="tglGRncMYDK3kfXCXygw-24" value="AGE" style="text;strokeColor=none;fillColor=none;align=left;verticalAlign=middle;spacingLeft=4;spacingRight=4;overflow=hidden;points=[[0,0.5],[1,0.5]];portConstraint=eastwest;rotatable=0;whiteSpace=wrap;html=1;" parent="tglGRncMYDK3kfXCXygw-20" vertex="1">
          <mxGeometry y="110" width="70" height="30" as="geometry" />
        </mxCell>
        <mxCell id="tglGRncMYDK3kfXCXygw-25" value="GENDER" style="text;strokeColor=none;fillColor=none;align=left;verticalAlign=middle;spacingLeft=4;spacingRight=4;overflow=hidden;points=[[0,0.5],[1,0.5]];portConstraint=eastwest;rotatable=0;whiteSpace=wrap;html=1;" parent="tglGRncMYDK3kfXCXygw-20" vertex="1">
          <mxGeometry y="140" width="70" height="30" as="geometry" />
        </mxCell>
        <mxCell id="tglGRncMYDK3kfXCXygw-27" value="SC" style="swimlane;whiteSpace=wrap;html=1;fillColor=#dae8fc;strokeColor=#6c8ebf;" parent="1" vertex="1">
          <mxGeometry x="280" y="480" width="70" height="110" as="geometry" />
        </mxCell>
        <mxCell id="tglGRncMYDK3kfXCXygw-28" value="&amp;nbsp;SID" style="text;strokeColor=none;fillColor=none;align=left;verticalAlign=middle;spacingLeft=4;spacingRight=4;overflow=hidden;points=[[0,0.5],[1,0.5]];portConstraint=eastwest;rotatable=0;whiteSpace=wrap;html=1;" parent="tglGRncMYDK3kfXCXygw-27" vertex="1">
          <mxGeometry y="20" width="70" height="30" as="geometry" />
        </mxCell>
        <mxCell id="tglGRncMYDK3kfXCXygw-29" value="&amp;nbsp;CID" style="text;strokeColor=none;fillColor=none;align=left;verticalAlign=middle;spacingLeft=4;spacingRight=4;overflow=hidden;points=[[0,0.5],[1,0.5]];portConstraint=eastwest;rotatable=0;whiteSpace=wrap;html=1;" parent="tglGRncMYDK3kfXCXygw-27" vertex="1">
          <mxGeometry y="50" width="70" height="30" as="geometry" />
        </mxCell>
        <mxCell id="tglGRncMYDK3kfXCXygw-30" value="&amp;nbsp;GRADE" style="text;strokeColor=none;fillColor=none;align=left;verticalAlign=middle;spacingLeft=4;spacingRight=4;overflow=hidden;points=[[0,0.5],[1,0.5]];portConstraint=eastwest;rotatable=0;whiteSpace=wrap;html=1;" parent="tglGRncMYDK3kfXCXygw-27" vertex="1">
          <mxGeometry y="80" width="70" height="30" as="geometry" />
        </mxCell>
        <mxCell id="ubzqq7GPprkI9fjkX4u7-1" value="" style="endArrow=none;dashed=1;html=1;rounded=0;" edge="1" parent="tglGRncMYDK3kfXCXygw-27">
          <mxGeometry width="50" height="50" relative="1" as="geometry">
            <mxPoint x="10" y="40" as="sourcePoint" />
            <mxPoint x="20" y="40" as="targetPoint" />
            <Array as="points">
              <mxPoint x="30" y="40" />
            </Array>
          </mxGeometry>
        </mxCell>
        <mxCell id="ubzqq7GPprkI9fjkX4u7-2" value="" style="endArrow=none;dashed=1;html=1;rounded=0;" edge="1" parent="tglGRncMYDK3kfXCXygw-27">
          <mxGeometry width="50" height="50" relative="1" as="geometry">
            <mxPoint x="10" y="70" as="sourcePoint" />
            <mxPoint x="20" y="70" as="targetPoint" />
            <Array as="points">
              <mxPoint x="30" y="70" />
            </Array>
          </mxGeometry>
        </mxCell>
        <mxCell id="tglGRncMYDK3kfXCXygw-33" value="course" style="swimlane;whiteSpace=wrap;html=1;fillColor=#dae8fc;strokeColor=#6c8ebf;" parent="1" vertex="1">
          <mxGeometry x="120" y="480" width="70" height="170" as="geometry">
            <mxRectangle x="300" y="460" width="80" height="30" as="alternateBounds" />
          </mxGeometry>
        </mxCell>
        <mxCell id="tglGRncMYDK3kfXCXygw-34" value="&lt;u&gt;CID&lt;/u&gt;" style="text;strokeColor=none;fillColor=none;align=left;verticalAlign=middle;spacingLeft=4;spacingRight=4;overflow=hidden;points=[[0,0.5],[1,0.5]];portConstraint=eastwest;rotatable=0;whiteSpace=wrap;html=1;" parent="tglGRncMYDK3kfXCXygw-33" vertex="1">
          <mxGeometry y="20" width="70" height="30" as="geometry" />
        </mxCell>
        <mxCell id="tglGRncMYDK3kfXCXygw-35" value="CNAME" style="text;strokeColor=none;fillColor=none;align=left;verticalAlign=middle;spacingLeft=4;spacingRight=4;overflow=hidden;points=[[0,0.5],[1,0.5]];portConstraint=eastwest;rotatable=0;whiteSpace=wrap;html=1;" parent="tglGRncMYDK3kfXCXygw-33" vertex="1">
          <mxGeometry y="50" width="70" height="30" as="geometry" />
        </mxCell>
        <mxCell id="tglGRncMYDK3kfXCXygw-36" value="DEPT" style="text;strokeColor=none;fillColor=none;align=left;verticalAlign=middle;spacingLeft=4;spacingRight=4;overflow=hidden;points=[[0,0.5],[1,0.5]];portConstraint=eastwest;rotatable=0;whiteSpace=wrap;html=1;" parent="tglGRncMYDK3kfXCXygw-33" vertex="1">
          <mxGeometry y="80" width="70" height="30" as="geometry" />
        </mxCell>
        <mxCell id="tglGRncMYDK3kfXCXygw-37" value="CREDITS" style="text;strokeColor=none;fillColor=none;align=left;verticalAlign=middle;spacingLeft=4;spacingRight=4;overflow=hidden;points=[[0,0.5],[1,0.5]];portConstraint=eastwest;rotatable=0;whiteSpace=wrap;html=1;" parent="tglGRncMYDK3kfXCXygw-33" vertex="1">
          <mxGeometry y="110" width="70" height="30" as="geometry" />
        </mxCell>
        <mxCell id="tglGRncMYDK3kfXCXygw-38" value="TEACHER" style="text;strokeColor=none;fillColor=none;align=left;verticalAlign=middle;spacingLeft=4;spacingRight=4;overflow=hidden;points=[[0,0.5],[1,0.5]];portConstraint=eastwest;rotatable=0;whiteSpace=wrap;html=1;" parent="tglGRncMYDK3kfXCXygw-33" vertex="1">
          <mxGeometry y="140" width="70" height="30" as="geometry" />
        </mxCell>
        <mxCell id="tglGRncMYDK3kfXCXygw-42" style="edgeStyle=orthogonalEdgeStyle;rounded=0;orthogonalLoop=1;jettySize=auto;html=1;entryX=0;entryY=0.5;entryDx=0;entryDy=0;" parent="1" source="tglGRncMYDK3kfXCXygw-28" target="tglGRncMYDK3kfXCXygw-21" edge="1">
          <mxGeometry relative="1" as="geometry" />
        </mxCell>
        <mxCell id="tglGRncMYDK3kfXCXygw-43" style="edgeStyle=orthogonalEdgeStyle;rounded=0;orthogonalLoop=1;jettySize=auto;html=1;entryX=0;entryY=0.5;entryDx=0;entryDy=0;" parent="1" source="tglGRncMYDK3kfXCXygw-29" target="tglGRncMYDK3kfXCXygw-34" edge="1">
          <mxGeometry relative="1" as="geometry">
            <Array as="points">
              <mxPoint x="250" y="545" />
              <mxPoint x="250" y="450" />
              <mxPoint x="100" y="450" />
              <mxPoint x="100" y="515" />
            </Array>
          </mxGeometry>
        </mxCell>
        <mxCell id="_UTZfVgISBCWfqdL6zN_-1" style="edgeStyle=orthogonalEdgeStyle;rounded=0;orthogonalLoop=1;jettySize=auto;html=1;" parent="1" source="tglGRncMYDK3kfXCXygw-36" edge="1">
          <mxGeometry relative="1" as="geometry">
            <mxPoint x="120" y="380" as="targetPoint" />
            <Array as="points">
              <mxPoint x="90" y="575" />
              <mxPoint x="90" y="380" />
            </Array>
          </mxGeometry>
        </mxCell>
        <mxCell id="_UTZfVgISBCWfqdL6zN_-2" style="edgeStyle=orthogonalEdgeStyle;rounded=0;orthogonalLoop=1;jettySize=auto;html=1;entryX=0.007;entryY=0.351;entryDx=0;entryDy=0;entryPerimeter=0;" parent="1" source="tglGRncMYDK3kfXCXygw-23" target="tglGRncMYDK3kfXCXygw-13" edge="1">
          <mxGeometry relative="1" as="geometry">
            <mxPoint x="120" y="370" as="targetPoint" />
            <Array as="points">
              <mxPoint x="230" y="375" />
              <mxPoint x="230" y="440" />
              <mxPoint x="80" y="440" />
              <mxPoint x="80" y="370" />
              <mxPoint x="120" y="370" />
            </Array>
          </mxGeometry>
        </mxCell>
      </root>
    </mxGraphModel>
  </diagram>
</mxfile>
